<?xml version="1.0" encoding="UTF-8" ?>
<svg version="1.1" width="160" height="16" xmlns="http://www.w3.org/2000/svg" shape-rendering="crispEdges">
<rect x="85" y="0" width="1" height="1" fill="#FFF9E4" />
<rect x="86" y="0" width="1" height="1" fill="#FFF9E4" />
<rect x="87" y="0" width="1" height="1" fill="#FFF9E4" />
<rect x="88" y="0" width="1" height="1" fill="#FFF9E4" />
<rect x="89" y="0" width="1" height="1" fill="#FFF9E4" />
<rect x="90" y="0" width="1" height="1" fill="#FFF9E4" />
<rect x="117" y="0" width="1" height="1" fill="#FFF9E4" />
<rect x="118" y="0" width="1" height="1" fill="#FFF9E4" />
<rect x="81" y="1" width="1" height="1" fill="#FFF9E4" />
<rect x="82" y="1" width="1" height="1" fill="#FFF9E4" />
<rect x="113" y="1" width="1" height="1" fill="#FFF9E4" />
<rect x="114" y="1" width="1" height="1" fill="#FFF9E4" />
<rect x="20" y="2" width="1" height="1" fill="#7D3840" />
<rect x="21" y="2" width="1" height="1" fill="#7D3840" />
<rect x="22" y="2" width="1" height="1" fill="#7D3840" />
<rect x="23" y="2" width="1" height="1" fill="#7D3840" />
<rect x="24" y="2" width="1" height="1" fill="#7D3840" />
<rect x="25" y="2" width="1" height="1" fill="#7D3840" />
<rect x="26" y="2" width="1" height="1" fill="#7D3840" />
<rect x="27" y="2" width="1" height="1" fill="#7D3840" />
<rect x="51" y="2" width="1" height="1" fill="#7D3840" />
<rect x="52" y="2" width="1" height="1" fill="#7D3840" />
<rect x="53" y="2" width="1" height="1" fill="#7D3840" />
<rect x="54" y="2" width="1" height="1" fill="#7D3840" />
<rect x="55" y="2" width="1" height="1" fill="#7D3840" />
<rect x="56" y="2" width="1" height="1" fill="#7D3840" />
<rect x="57" y="2" width="1" height="1" fill="#7D3840" />
<rect x="58" y="2" width="1" height="1" fill="#7D3840" />
<rect x="78" y="2" width="1" height="1" fill="#FFF9E4" />
<rect x="79" y="2" width="1" height="1" fill="#FFF9E4" />
<rect x="80" y="2" width="1" height="1" fill="#FFF9E4" />
<rect x="84" y="2" width="1" height="1" fill="#7D3840" />
<rect x="85" y="2" width="1" height="1" fill="#7D3840" />
<rect x="86" y="2" width="1" height="1" fill="#7D3840" />
<rect x="87" y="2" width="1" height="1" fill="#7D3840" />
<rect x="88" y="2" width="1" height="1" fill="#7D3840" />
<rect x="89" y="2" width="1" height="1" fill="#7D3840" />
<rect x="90" y="2" width="1" height="1" fill="#7D3840" />
<rect x="91" y="2" width="1" height="1" fill="#7D3840" />
<rect x="110" y="2" width="1" height="1" fill="#FFF9E4" />
<rect x="111" y="2" width="1" height="1" fill="#FFF9E4" />
<rect x="112" y="2" width="1" height="1" fill="#FFF9E4" />
<rect x="116" y="2" width="1" height="1" fill="#7D3840" />
<rect x="117" y="2" width="1" height="1" fill="#7D3840" />
<rect x="118" y="2" width="1" height="1" fill="#7D3840" />
<rect x="119" y="2" width="1" height="1" fill="#7D3840" />
<rect x="120" y="2" width="1" height="1" fill="#7D3840" />
<rect x="121" y="2" width="1" height="1" fill="#7D3840" />
<rect x="122" y="2" width="1" height="1" fill="#7D3840" />
<rect x="123" y="2" width="1" height="1" fill="#7D3840" />
<rect x="148" y="2" width="1" height="1" fill="#7D3840" />
<rect x="149" y="2" width="1" height="1" fill="#7D3840" />
<rect x="150" y="2" width="1" height="1" fill="#7D3840" />
<rect x="151" y="2" width="1" height="1" fill="#7D3840" />
<rect x="152" y="2" width="1" height="1" fill="#7D3840" />
<rect x="153" y="2" width="1" height="1" fill="#7D3840" />
<rect x="154" y="2" width="1" height="1" fill="#7D3840" />
<rect x="155" y="2" width="1" height="1" fill="#7D3840" />
<rect x="19" y="3" width="1" height="1" fill="#7D3840" />
<rect x="20" y="3" width="1" height="1" fill="#7D3840" />
<rect x="21" y="3" width="1" height="1" fill="#7D3840" />
<rect x="22" y="3" width="1" height="1" fill="#7D3840" />
<rect x="23" y="3" width="1" height="1" fill="#FFF9E4" />
<rect x="24" y="3" width="1" height="1" fill="#7D3840" />
<rect x="25" y="3" width="1" height="1" fill="#7D3840" />
<rect x="26" y="3" width="1" height="1" fill="#7D3840" />
<rect x="27" y="3" width="1" height="1" fill="#7D3840" />
<rect x="28" y="3" width="1" height="1" fill="#7D3840" />
<rect x="50" y="3" width="1" height="1" fill="#7D3840" />
<rect x="51" y="3" width="1" height="1" fill="#7D3840" />
<rect x="52" y="3" width="1" height="1" fill="#7D3840" />
<rect x="53" y="3" width="1" height="1" fill="#7D3840" />
<rect x="54" y="3" width="1" height="1" fill="#FFF9E4" />
<rect x="55" y="3" width="1" height="1" fill="#7D3840" />
<rect x="56" y="3" width="1" height="1" fill="#7D3840" />
<rect x="57" y="3" width="1" height="1" fill="#7D3840" />
<rect x="58" y="3" width="1" height="1" fill="#7D3840" />
<rect x="59" y="3" width="1" height="1" fill="#7D3840" />
<rect x="83" y="3" width="1" height="1" fill="#7D3840" />
<rect x="84" y="3" width="1" height="1" fill="#7D3840" />
<rect x="85" y="3" width="1" height="1" fill="#7D3840" />
<rect x="86" y="3" width="1" height="1" fill="#7D3840" />
<rect x="87" y="3" width="1" height="1" fill="#FFF9E4" />
<rect x="88" y="3" width="1" height="1" fill="#7D3840" />
<rect x="89" y="3" width="1" height="1" fill="#7D3840" />
<rect x="90" y="3" width="1" height="1" fill="#7D3840" />
<rect x="91" y="3" width="1" height="1" fill="#7D3840" />
<rect x="92" y="3" width="1" height="1" fill="#7D3840" />
<rect x="93" y="3" width="1" height="1" fill="#EEE9D5" />
<rect x="94" y="3" width="1" height="1" fill="#FFF9E4" />
<rect x="95" y="3" width="1" height="1" fill="#FFF9E4" />
<rect x="115" y="3" width="1" height="1" fill="#7D3840" />
<rect x="116" y="3" width="1" height="1" fill="#7D3840" />
<rect x="117" y="3" width="1" height="1" fill="#7D3840" />
<rect x="118" y="3" width="1" height="1" fill="#7D3840" />
<rect x="119" y="3" width="1" height="1" fill="#FFF9E4" />
<rect x="120" y="3" width="1" height="1" fill="#7D3840" />
<rect x="121" y="3" width="1" height="1" fill="#7D3840" />
<rect x="122" y="3" width="1" height="1" fill="#7D3840" />
<rect x="123" y="3" width="1" height="1" fill="#7D3840" />
<rect x="124" y="3" width="1" height="1" fill="#7D3840" />
<rect x="125" y="3" width="1" height="1" fill="#EEE9D5" />
<rect x="126" y="3" width="1" height="1" fill="#FFF9E4" />
<rect x="147" y="3" width="1" height="1" fill="#7D3840" />
<rect x="148" y="3" width="1" height="1" fill="#7D3840" />
<rect x="149" y="3" width="1" height="1" fill="#7D3840" />
<rect x="150" y="3" width="1" height="1" fill="#7D3840" />
<rect x="151" y="3" width="1" height="1" fill="#FFF9E4" />
<rect x="152" y="3" width="1" height="1" fill="#7D3840" />
<rect x="153" y="3" width="1" height="1" fill="#7D3840" />
<rect x="154" y="3" width="1" height="1" fill="#7D3840" />
<rect x="155" y="3" width="1" height="1" fill="#7D3840" />
<rect x="156" y="3" width="1" height="1" fill="#7D3840" />
<rect x="18" y="4" width="1" height="1" fill="#7D3840" />
<rect x="19" y="4" width="1" height="1" fill="#7D3840" />
<rect x="20" y="4" width="1" height="1" fill="#7D3840" />
<rect x="21" y="4" width="1" height="1" fill="#7D3840" />
<rect x="22" y="4" width="1" height="1" fill="#7D3840" />
<rect x="23" y="4" width="1" height="1" fill="#7D3840" />
<rect x="24" y="4" width="1" height="1" fill="#7D3840" />
<rect x="25" y="4" width="1" height="1" fill="#7D3840" />
<rect x="26" y="4" width="1" height="1" fill="#7D3840" />
<rect x="27" y="4" width="1" height="1" fill="#FFF9E4" />
<rect x="28" y="4" width="1" height="1" fill="#7D3840" />
<rect x="29" y="4" width="1" height="1" fill="#7D3840" />
<rect x="49" y="4" width="1" height="1" fill="#7D3840" />
<rect x="50" y="4" width="1" height="1" fill="#7D3840" />
<rect x="51" y="4" width="1" height="1" fill="#7D3840" />
<rect x="52" y="4" width="1" height="1" fill="#7D3840" />
<rect x="53" y="4" width="1" height="1" fill="#7D3840" />
<rect x="54" y="4" width="1" height="1" fill="#7D3840" />
<rect x="55" y="4" width="1" height="1" fill="#7D3840" />
<rect x="56" y="4" width="1" height="1" fill="#7D3840" />
<rect x="57" y="4" width="1" height="1" fill="#7D3840" />
<rect x="58" y="4" width="1" height="1" fill="#FFF9E4" />
<rect x="59" y="4" width="1" height="1" fill="#7D3840" />
<rect x="60" y="4" width="1" height="1" fill="#7D3840" />
<rect x="75" y="4" width="1" height="1" fill="#FFF9E4" />
<rect x="76" y="4" width="1" height="1" fill="#FFF9E4" />
<rect x="77" y="4" width="1" height="1" fill="#FFF9E4" />
<rect x="78" y="4" width="1" height="1" fill="#FFF9E4" />
<rect x="82" y="4" width="1" height="1" fill="#7D3840" />
<rect x="83" y="4" width="1" height="1" fill="#7D3840" />
<rect x="84" y="4" width="1" height="1" fill="#7D3840" />
<rect x="85" y="4" width="1" height="1" fill="#7D3840" />
<rect x="86" y="4" width="1" height="1" fill="#7D3840" />
<rect x="87" y="4" width="1" height="1" fill="#7D3840" />
<rect x="88" y="4" width="1" height="1" fill="#7D3840" />
<rect x="89" y="4" width="1" height="1" fill="#7D3840" />
<rect x="90" y="4" width="1" height="1" fill="#7D3840" />
<rect x="91" y="4" width="1" height="1" fill="#FFF9E4" />
<rect x="92" y="4" width="1" height="1" fill="#7D3840" />
<rect x="93" y="4" width="1" height="1" fill="#7D3840" />
<rect x="94" y="4" width="1" height="1" fill="#EEE9D5" />
<rect x="95" y="4" width="1" height="1" fill="#FFF9E4" />
<rect x="107" y="4" width="1" height="1" fill="#FFF9E4" />
<rect x="114" y="4" width="1" height="1" fill="#7D3840" />
<rect x="115" y="4" width="1" height="1" fill="#7D3840" />
<rect x="116" y="4" width="1" height="1" fill="#7D3840" />
<rect x="117" y="4" width="1" height="1" fill="#7D3840" />
<rect x="118" y="4" width="1" height="1" fill="#7D3840" />
<rect x="119" y="4" width="1" height="1" fill="#7D3840" />
<rect x="120" y="4" width="1" height="1" fill="#7D3840" />
<rect x="121" y="4" width="1" height="1" fill="#7D3840" />
<rect x="122" y="4" width="1" height="1" fill="#7D3840" />
<rect x="123" y="4" width="1" height="1" fill="#FFF9E4" />
<rect x="124" y="4" width="1" height="1" fill="#7D3840" />
<rect x="125" y="4" width="1" height="1" fill="#7D3840" />
<rect x="126" y="4" width="1" height="1" fill="#EEE9D5" />
<rect x="146" y="4" width="1" height="1" fill="#7D3840" />
<rect x="147" y="4" width="1" height="1" fill="#7D3840" />
<rect x="148" y="4" width="1" height="1" fill="#7D3840" />
<rect x="149" y="4" width="1" height="1" fill="#7D3840" />
<rect x="150" y="4" width="1" height="1" fill="#7D3840" />
<rect x="151" y="4" width="1" height="1" fill="#7D3840" />
<rect x="152" y="4" width="1" height="1" fill="#7D3840" />
<rect x="153" y="4" width="1" height="1" fill="#7D3840" />
<rect x="154" y="4" width="1" height="1" fill="#7D3840" />
<rect x="155" y="4" width="1" height="1" fill="#FFF9E4" />
<rect x="156" y="4" width="1" height="1" fill="#7D3840" />
<rect x="157" y="4" width="1" height="1" fill="#7D3840" />
<rect x="18" y="5" width="1" height="1" fill="#7D3840" />
<rect x="19" y="5" width="1" height="1" fill="#7D3840" />
<rect x="20" y="5" width="1" height="1" fill="#7D3840" />
<rect x="21" y="5" width="1" height="1" fill="#7D3840" />
<rect x="22" y="5" width="1" height="1" fill="#7D3840" />
<rect x="23" y="5" width="1" height="1" fill="#7D3840" />
<rect x="24" y="5" width="1" height="1" fill="#7D3840" />
<rect x="25" y="5" width="1" height="1" fill="#7D3840" />
<rect x="26" y="5" width="1" height="1" fill="#7D3840" />
<rect x="27" y="5" width="1" height="1" fill="#7D3840" />
<rect x="28" y="5" width="1" height="1" fill="#7D3840" />
<rect x="29" y="5" width="1" height="1" fill="#7D3840" />
<rect x="49" y="5" width="1" height="1" fill="#7D3840" />
<rect x="50" y="5" width="1" height="1" fill="#7D3840" />
<rect x="51" y="5" width="1" height="1" fill="#7D3840" />
<rect x="52" y="5" width="1" height="1" fill="#7D3840" />
<rect x="53" y="5" width="1" height="1" fill="#7D3840" />
<rect x="54" y="5" width="1" height="1" fill="#7D3840" />
<rect x="55" y="5" width="1" height="1" fill="#7D3840" />
<rect x="56" y="5" width="1" height="1" fill="#7D3840" />
<rect x="57" y="5" width="1" height="1" fill="#7D3840" />
<rect x="58" y="5" width="1" height="1" fill="#7D3840" />
<rect x="59" y="5" width="1" height="1" fill="#7D3840" />
<rect x="60" y="5" width="1" height="1" fill="#7D3840" />
<rect x="82" y="5" width="1" height="1" fill="#7D3840" />
<rect x="83" y="5" width="1" height="1" fill="#7D3840" />
<rect x="84" y="5" width="1" height="1" fill="#7D3840" />
<rect x="85" y="5" width="1" height="1" fill="#7D3840" />
<rect x="86" y="5" width="1" height="1" fill="#7D3840" />
<rect x="87" y="5" width="1" height="1" fill="#7D3840" />
<rect x="88" y="5" width="1" height="1" fill="#7D3840" />
<rect x="89" y="5" width="1" height="1" fill="#7D3840" />
<rect x="90" y="5" width="1" height="1" fill="#7D3840" />
<rect x="91" y="5" width="1" height="1" fill="#7D3840" />
<rect x="92" y="5" width="1" height="1" fill="#7D3840" />
<rect x="93" y="5" width="1" height="1" fill="#7D3840" />
<rect x="114" y="5" width="1" height="1" fill="#7D3840" />
<rect x="115" y="5" width="1" height="1" fill="#7D3840" />
<rect x="116" y="5" width="1" height="1" fill="#7D3840" />
<rect x="117" y="5" width="1" height="1" fill="#7D3840" />
<rect x="118" y="5" width="1" height="1" fill="#7D3840" />
<rect x="119" y="5" width="1" height="1" fill="#7D3840" />
<rect x="120" y="5" width="1" height="1" fill="#7D3840" />
<rect x="121" y="5" width="1" height="1" fill="#7D3840" />
<rect x="122" y="5" width="1" height="1" fill="#7D3840" />
<rect x="123" y="5" width="1" height="1" fill="#7D3840" />
<rect x="124" y="5" width="1" height="1" fill="#7D3840" />
<rect x="125" y="5" width="1" height="1" fill="#7D3840" />
<rect x="146" y="5" width="1" height="1" fill="#7D3840" />
<rect x="147" y="5" width="1" height="1" fill="#7D3840" />
<rect x="148" y="5" width="1" height="1" fill="#7D3840" />
<rect x="149" y="5" width="1" height="1" fill="#7D3840" />
<rect x="150" y="5" width="1" height="1" fill="#7D3840" />
<rect x="151" y="5" width="1" height="1" fill="#7D3840" />
<rect x="152" y="5" width="1" height="1" fill="#7D3840" />
<rect x="153" y="5" width="1" height="1" fill="#7D3840" />
<rect x="154" y="5" width="1" height="1" fill="#7D3840" />
<rect x="155" y="5" width="1" height="1" fill="#7D3840" />
<rect x="156" y="5" width="1" height="1" fill="#7D3840" />
<rect x="157" y="5" width="1" height="1" fill="#7D3840" />
<rect x="18" y="6" width="1" height="1" fill="#7D3840" />
<rect x="19" y="6" width="1" height="1" fill="#7D3840" />
<rect x="20" y="6" width="1" height="1" fill="#FFF9E4" />
<rect x="21" y="6" width="1" height="1" fill="#7D3840" />
<rect x="22" y="6" width="1" height="1" fill="#7D3840" />
<rect x="23" y="6" width="1" height="1" fill="#7D3840" />
<rect x="24" y="6" width="1" height="1" fill="#7D3840" />
<rect x="25" y="6" width="1" height="1" fill="#7D3840" />
<rect x="26" y="6" width="1" height="1" fill="#7D3840" />
<rect x="27" y="6" width="1" height="1" fill="#7D3840" />
<rect x="28" y="6" width="1" height="1" fill="#7D3840" />
<rect x="29" y="6" width="1" height="1" fill="#7D3840" />
<rect x="49" y="6" width="1" height="1" fill="#7D3840" />
<rect x="50" y="6" width="1" height="1" fill="#7D3840" />
<rect x="51" y="6" width="1" height="1" fill="#FFF9E4" />
<rect x="52" y="6" width="1" height="1" fill="#7D3840" />
<rect x="53" y="6" width="1" height="1" fill="#7D3840" />
<rect x="54" y="6" width="1" height="1" fill="#7D3840" />
<rect x="55" y="6" width="1" height="1" fill="#7D3840" />
<rect x="56" y="6" width="1" height="1" fill="#7D3840" />
<rect x="57" y="6" width="1" height="1" fill="#7D3840" />
<rect x="58" y="6" width="1" height="1" fill="#7D3840" />
<rect x="59" y="6" width="1" height="1" fill="#7D3840" />
<rect x="60" y="6" width="1" height="1" fill="#7D3840" />
<rect x="82" y="6" width="1" height="1" fill="#7D3840" />
<rect x="83" y="6" width="1" height="1" fill="#7D3840" />
<rect x="84" y="6" width="1" height="1" fill="#FFF9E4" />
<rect x="85" y="6" width="1" height="1" fill="#7D3840" />
<rect x="86" y="6" width="1" height="1" fill="#7D3840" />
<rect x="87" y="6" width="1" height="1" fill="#7D3840" />
<rect x="88" y="6" width="1" height="1" fill="#7D3840" />
<rect x="89" y="6" width="1" height="1" fill="#7D3840" />
<rect x="90" y="6" width="1" height="1" fill="#7D3840" />
<rect x="91" y="6" width="1" height="1" fill="#7D3840" />
<rect x="92" y="6" width="1" height="1" fill="#7D3840" />
<rect x="93" y="6" width="1" height="1" fill="#7D3840" />
<rect x="114" y="6" width="1" height="1" fill="#7D3840" />
<rect x="115" y="6" width="1" height="1" fill="#7D3840" />
<rect x="116" y="6" width="1" height="1" fill="#FFF9E4" />
<rect x="117" y="6" width="1" height="1" fill="#7D3840" />
<rect x="118" y="6" width="1" height="1" fill="#7D3840" />
<rect x="119" y="6" width="1" height="1" fill="#7D3840" />
<rect x="120" y="6" width="1" height="1" fill="#7D3840" />
<rect x="121" y="6" width="1" height="1" fill="#7D3840" />
<rect x="122" y="6" width="1" height="1" fill="#7D3840" />
<rect x="123" y="6" width="1" height="1" fill="#7D3840" />
<rect x="124" y="6" width="1" height="1" fill="#7D3840" />
<rect x="125" y="6" width="1" height="1" fill="#7D3840" />
<rect x="146" y="6" width="1" height="1" fill="#7D3840" />
<rect x="147" y="6" width="1" height="1" fill="#7D3840" />
<rect x="148" y="6" width="1" height="1" fill="#FFF9E4" />
<rect x="149" y="6" width="1" height="1" fill="#7D3840" />
<rect x="150" y="6" width="1" height="1" fill="#7D3840" />
<rect x="151" y="6" width="1" height="1" fill="#7D3840" />
<rect x="152" y="6" width="1" height="1" fill="#7D3840" />
<rect x="153" y="6" width="1" height="1" fill="#7D3840" />
<rect x="154" y="6" width="1" height="1" fill="#7D3840" />
<rect x="155" y="6" width="1" height="1" fill="#7D3840" />
<rect x="156" y="6" width="1" height="1" fill="#7D3840" />
<rect x="157" y="6" width="1" height="1" fill="#7D3840" />
<rect x="18" y="7" width="1" height="1" fill="#7D3840" />
<rect x="19" y="7" width="1" height="1" fill="#7D3840" />
<rect x="20" y="7" width="1" height="1" fill="#7D3840" />
<rect x="21" y="7" width="1" height="1" fill="#7D3840" />
<rect x="22" y="7" width="1" height="1" fill="#7D3840" />
<rect x="23" y="7" width="1" height="1" fill="#7D3840" />
<rect x="24" y="7" width="1" height="1" fill="#7D3840" />
<rect x="25" y="7" width="1" height="1" fill="#7D3840" />
<rect x="26" y="7" width="1" height="1" fill="#7D3840" />
<rect x="27" y="7" width="1" height="1" fill="#7D3840" />
<rect x="28" y="7" width="1" height="1" fill="#7D3840" />
<rect x="29" y="7" width="1" height="1" fill="#7D3840" />
<rect x="49" y="7" width="1" height="1" fill="#7D3840" />
<rect x="50" y="7" width="1" height="1" fill="#7D3840" />
<rect x="51" y="7" width="1" height="1" fill="#7D3840" />
<rect x="52" y="7" width="1" height="1" fill="#7D3840" />
<rect x="53" y="7" width="1" height="1" fill="#7D3840" />
<rect x="54" y="7" width="1" height="1" fill="#7D3840" />
<rect x="55" y="7" width="1" height="1" fill="#7D3840" />
<rect x="56" y="7" width="1" height="1" fill="#7D3840" />
<rect x="57" y="7" width="1" height="1" fill="#7D3840" />
<rect x="58" y="7" width="1" height="1" fill="#7D3840" />
<rect x="59" y="7" width="1" height="1" fill="#7D3840" />
<rect x="60" y="7" width="1" height="1" fill="#7D3840" />
<rect x="82" y="7" width="1" height="1" fill="#7D3840" />
<rect x="83" y="7" width="1" height="1" fill="#7D3840" />
<rect x="84" y="7" width="1" height="1" fill="#7D3840" />
<rect x="85" y="7" width="1" height="1" fill="#7D3840" />
<rect x="86" y="7" width="1" height="1" fill="#7D3840" />
<rect x="87" y="7" width="1" height="1" fill="#7D3840" />
<rect x="88" y="7" width="1" height="1" fill="#7D3840" />
<rect x="89" y="7" width="1" height="1" fill="#7D3840" />
<rect x="90" y="7" width="1" height="1" fill="#7D3840" />
<rect x="91" y="7" width="1" height="1" fill="#7D3840" />
<rect x="92" y="7" width="1" height="1" fill="#7D3840" />
<rect x="93" y="7" width="1" height="1" fill="#7D3840" />
<rect x="114" y="7" width="1" height="1" fill="#7D3840" />
<rect x="115" y="7" width="1" height="1" fill="#7D3840" />
<rect x="116" y="7" width="1" height="1" fill="#7D3840" />
<rect x="117" y="7" width="1" height="1" fill="#7D3840" />
<rect x="118" y="7" width="1" height="1" fill="#7D3840" />
<rect x="119" y="7" width="1" height="1" fill="#7D3840" />
<rect x="120" y="7" width="1" height="1" fill="#7D3840" />
<rect x="121" y="7" width="1" height="1" fill="#7D3840" />
<rect x="122" y="7" width="1" height="1" fill="#7D3840" />
<rect x="123" y="7" width="1" height="1" fill="#7D3840" />
<rect x="124" y="7" width="1" height="1" fill="#7D3840" />
<rect x="125" y="7" width="1" height="1" fill="#7D3840" />
<rect x="146" y="7" width="1" height="1" fill="#7D3840" />
<rect x="147" y="7" width="1" height="1" fill="#7D3840" />
<rect x="148" y="7" width="1" height="1" fill="#7D3840" />
<rect x="149" y="7" width="1" height="1" fill="#7D3840" />
<rect x="150" y="7" width="1" height="1" fill="#7D3840" />
<rect x="151" y="7" width="1" height="1" fill="#7D3840" />
<rect x="152" y="7" width="1" height="1" fill="#7D3840" />
<rect x="153" y="7" width="1" height="1" fill="#7D3840" />
<rect x="154" y="7" width="1" height="1" fill="#7D3840" />
<rect x="155" y="7" width="1" height="1" fill="#7D3840" />
<rect x="156" y="7" width="1" height="1" fill="#7D3840" />
<rect x="157" y="7" width="1" height="1" fill="#7D3840" />
<rect x="18" y="8" width="1" height="1" fill="#7D3840" />
<rect x="19" y="8" width="1" height="1" fill="#7D3840" />
<rect x="20" y="8" width="1" height="1" fill="#7D3840" />
<rect x="21" y="8" width="1" height="1" fill="#7D3840" />
<rect x="22" y="8" width="1" height="1" fill="#7D3840" />
<rect x="23" y="8" width="1" height="1" fill="#7D3840" />
<rect x="24" y="8" width="1" height="1" fill="#FFF9E4" />
<rect x="25" y="8" width="1" height="1" fill="#7D3840" />
<rect x="26" y="8" width="1" height="1" fill="#7D3840" />
<rect x="27" y="8" width="1" height="1" fill="#7D3840" />
<rect x="28" y="8" width="1" height="1" fill="#FFF9E4" />
<rect x="29" y="8" width="1" height="1" fill="#7D3840" />
<rect x="49" y="8" width="1" height="1" fill="#7D3840" />
<rect x="50" y="8" width="1" height="1" fill="#7D3840" />
<rect x="51" y="8" width="1" height="1" fill="#7D3840" />
<rect x="52" y="8" width="1" height="1" fill="#7D3840" />
<rect x="53" y="8" width="1" height="1" fill="#7D3840" />
<rect x="54" y="8" width="1" height="1" fill="#7D3840" />
<rect x="55" y="8" width="1" height="1" fill="#FFF9E4" />
<rect x="56" y="8" width="1" height="1" fill="#7D3840" />
<rect x="57" y="8" width="1" height="1" fill="#7D3840" />
<rect x="58" y="8" width="1" height="1" fill="#7D3840" />
<rect x="59" y="8" width="1" height="1" fill="#FFF9E4" />
<rect x="60" y="8" width="1" height="1" fill="#7D3840" />
<rect x="82" y="8" width="1" height="1" fill="#7D3840" />
<rect x="83" y="8" width="1" height="1" fill="#7D3840" />
<rect x="84" y="8" width="1" height="1" fill="#7D3840" />
<rect x="85" y="8" width="1" height="1" fill="#7D3840" />
<rect x="86" y="8" width="1" height="1" fill="#7D3840" />
<rect x="87" y="8" width="1" height="1" fill="#7D3840" />
<rect x="88" y="8" width="1" height="1" fill="#FFF9E4" />
<rect x="89" y="8" width="1" height="1" fill="#7D3840" />
<rect x="90" y="8" width="1" height="1" fill="#7D3840" />
<rect x="91" y="8" width="1" height="1" fill="#7D3840" />
<rect x="92" y="8" width="1" height="1" fill="#FFF9E4" />
<rect x="93" y="8" width="1" height="1" fill="#7D3840" />
<rect x="114" y="8" width="1" height="1" fill="#7D3840" />
<rect x="115" y="8" width="1" height="1" fill="#7D3840" />
<rect x="116" y="8" width="1" height="1" fill="#7D3840" />
<rect x="117" y="8" width="1" height="1" fill="#7D3840" />
<rect x="118" y="8" width="1" height="1" fill="#7D3840" />
<rect x="119" y="8" width="1" height="1" fill="#7D3840" />
<rect x="120" y="8" width="1" height="1" fill="#FFF9E4" />
<rect x="121" y="8" width="1" height="1" fill="#7D3840" />
<rect x="122" y="8" width="1" height="1" fill="#7D3840" />
<rect x="123" y="8" width="1" height="1" fill="#7D3840" />
<rect x="124" y="8" width="1" height="1" fill="#FFF9E4" />
<rect x="125" y="8" width="1" height="1" fill="#7D3840" />
<rect x="146" y="8" width="1" height="1" fill="#7D3840" />
<rect x="147" y="8" width="1" height="1" fill="#7D3840" />
<rect x="148" y="8" width="1" height="1" fill="#7D3840" />
<rect x="149" y="8" width="1" height="1" fill="#7D3840" />
<rect x="150" y="8" width="1" height="1" fill="#7D3840" />
<rect x="151" y="8" width="1" height="1" fill="#7D3840" />
<rect x="152" y="8" width="1" height="1" fill="#FFF9E4" />
<rect x="153" y="8" width="1" height="1" fill="#7D3840" />
<rect x="154" y="8" width="1" height="1" fill="#7D3840" />
<rect x="155" y="8" width="1" height="1" fill="#7D3840" />
<rect x="156" y="8" width="1" height="1" fill="#FFF9E4" />
<rect x="157" y="8" width="1" height="1" fill="#7D3840" />
<rect x="18" y="9" width="1" height="1" fill="#7D3840" />
<rect x="19" y="9" width="1" height="1" fill="#FFF9E4" />
<rect x="20" y="9" width="1" height="1" fill="#7D3840" />
<rect x="21" y="9" width="1" height="1" fill="#7D3840" />
<rect x="22" y="9" width="1" height="1" fill="#7D3840" />
<rect x="23" y="9" width="1" height="1" fill="#7D3840" />
<rect x="24" y="9" width="1" height="1" fill="#7D3840" />
<rect x="25" y="9" width="1" height="1" fill="#7D3840" />
<rect x="26" y="9" width="1" height="1" fill="#7D3840" />
<rect x="27" y="9" width="1" height="1" fill="#7D3840" />
<rect x="28" y="9" width="1" height="1" fill="#7D3840" />
<rect x="29" y="9" width="1" height="1" fill="#7D3840" />
<rect x="49" y="9" width="1" height="1" fill="#7D3840" />
<rect x="50" y="9" width="1" height="1" fill="#FFF9E4" />
<rect x="51" y="9" width="1" height="1" fill="#7D3840" />
<rect x="52" y="9" width="1" height="1" fill="#7D3840" />
<rect x="53" y="9" width="1" height="1" fill="#7D3840" />
<rect x="54" y="9" width="1" height="1" fill="#7D3840" />
<rect x="55" y="9" width="1" height="1" fill="#7D3840" />
<rect x="56" y="9" width="1" height="1" fill="#7D3840" />
<rect x="57" y="9" width="1" height="1" fill="#7D3840" />
<rect x="58" y="9" width="1" height="1" fill="#7D3840" />
<rect x="59" y="9" width="1" height="1" fill="#7D3840" />
<rect x="60" y="9" width="1" height="1" fill="#7D3840" />
<rect x="82" y="9" width="1" height="1" fill="#7D3840" />
<rect x="83" y="9" width="1" height="1" fill="#FFF9E4" />
<rect x="84" y="9" width="1" height="1" fill="#7D3840" />
<rect x="85" y="9" width="1" height="1" fill="#7D3840" />
<rect x="86" y="9" width="1" height="1" fill="#7D3840" />
<rect x="87" y="9" width="1" height="1" fill="#7D3840" />
<rect x="88" y="9" width="1" height="1" fill="#7D3840" />
<rect x="89" y="9" width="1" height="1" fill="#7D3840" />
<rect x="90" y="9" width="1" height="1" fill="#7D3840" />
<rect x="91" y="9" width="1" height="1" fill="#7D3840" />
<rect x="92" y="9" width="1" height="1" fill="#7D3840" />
<rect x="93" y="9" width="1" height="1" fill="#7D3840" />
<rect x="114" y="9" width="1" height="1" fill="#7D3840" />
<rect x="115" y="9" width="1" height="1" fill="#FFF9E4" />
<rect x="116" y="9" width="1" height="1" fill="#7D3840" />
<rect x="117" y="9" width="1" height="1" fill="#7D3840" />
<rect x="118" y="9" width="1" height="1" fill="#7D3840" />
<rect x="119" y="9" width="1" height="1" fill="#7D3840" />
<rect x="120" y="9" width="1" height="1" fill="#7D3840" />
<rect x="121" y="9" width="1" height="1" fill="#7D3840" />
<rect x="122" y="9" width="1" height="1" fill="#7D3840" />
<rect x="123" y="9" width="1" height="1" fill="#7D3840" />
<rect x="124" y="9" width="1" height="1" fill="#7D3840" />
<rect x="125" y="9" width="1" height="1" fill="#7D3840" />
<rect x="146" y="9" width="1" height="1" fill="#7D3840" />
<rect x="147" y="9" width="1" height="1" fill="#FFF9E4" />
<rect x="148" y="9" width="1" height="1" fill="#7D3840" />
<rect x="149" y="9" width="1" height="1" fill="#7D3840" />
<rect x="150" y="9" width="1" height="1" fill="#7D3840" />
<rect x="151" y="9" width="1" height="1" fill="#7D3840" />
<rect x="152" y="9" width="1" height="1" fill="#7D3840" />
<rect x="153" y="9" width="1" height="1" fill="#7D3840" />
<rect x="154" y="9" width="1" height="1" fill="#7D3840" />
<rect x="155" y="9" width="1" height="1" fill="#7D3840" />
<rect x="156" y="9" width="1" height="1" fill="#7D3840" />
<rect x="157" y="9" width="1" height="1" fill="#7D3840" />
<rect x="18" y="10" width="1" height="1" fill="#7D3840" />
<rect x="19" y="10" width="1" height="1" fill="#7D3840" />
<rect x="20" y="10" width="1" height="1" fill="#7D3840" />
<rect x="21" y="10" width="1" height="1" fill="#7D3840" />
<rect x="22" y="10" width="1" height="1" fill="#7D3840" />
<rect x="23" y="10" width="1" height="1" fill="#7D3840" />
<rect x="24" y="10" width="1" height="1" fill="#7D3840" />
<rect x="25" y="10" width="1" height="1" fill="#7D3840" />
<rect x="26" y="10" width="1" height="1" fill="#7D3840" />
<rect x="27" y="10" width="1" height="1" fill="#7D3840" />
<rect x="28" y="10" width="1" height="1" fill="#7D3840" />
<rect x="29" y="10" width="1" height="1" fill="#7D3840" />
<rect x="49" y="10" width="1" height="1" fill="#7D3840" />
<rect x="50" y="10" width="1" height="1" fill="#7D3840" />
<rect x="51" y="10" width="1" height="1" fill="#7D3840" />
<rect x="52" y="10" width="1" height="1" fill="#7D3840" />
<rect x="53" y="10" width="1" height="1" fill="#7D3840" />
<rect x="54" y="10" width="1" height="1" fill="#7D3840" />
<rect x="55" y="10" width="1" height="1" fill="#7D3840" />
<rect x="56" y="10" width="1" height="1" fill="#7D3840" />
<rect x="57" y="10" width="1" height="1" fill="#7D3840" />
<rect x="58" y="10" width="1" height="1" fill="#7D3840" />
<rect x="59" y="10" width="1" height="1" fill="#7D3840" />
<rect x="60" y="10" width="1" height="1" fill="#7D3840" />
<rect x="82" y="10" width="1" height="1" fill="#7D3840" />
<rect x="83" y="10" width="1" height="1" fill="#7D3840" />
<rect x="84" y="10" width="1" height="1" fill="#7D3840" />
<rect x="85" y="10" width="1" height="1" fill="#7D3840" />
<rect x="86" y="10" width="1" height="1" fill="#7D3840" />
<rect x="87" y="10" width="1" height="1" fill="#7D3840" />
<rect x="88" y="10" width="1" height="1" fill="#7D3840" />
<rect x="89" y="10" width="1" height="1" fill="#7D3840" />
<rect x="90" y="10" width="1" height="1" fill="#7D3840" />
<rect x="91" y="10" width="1" height="1" fill="#7D3840" />
<rect x="92" y="10" width="1" height="1" fill="#7D3840" />
<rect x="93" y="10" width="1" height="1" fill="#7D3840" />
<rect x="114" y="10" width="1" height="1" fill="#7D3840" />
<rect x="115" y="10" width="1" height="1" fill="#7D3840" />
<rect x="116" y="10" width="1" height="1" fill="#7D3840" />
<rect x="117" y="10" width="1" height="1" fill="#7D3840" />
<rect x="118" y="10" width="1" height="1" fill="#7D3840" />
<rect x="119" y="10" width="1" height="1" fill="#7D3840" />
<rect x="120" y="10" width="1" height="1" fill="#7D3840" />
<rect x="121" y="10" width="1" height="1" fill="#7D3840" />
<rect x="122" y="10" width="1" height="1" fill="#7D3840" />
<rect x="123" y="10" width="1" height="1" fill="#7D3840" />
<rect x="124" y="10" width="1" height="1" fill="#7D3840" />
<rect x="125" y="10" width="1" height="1" fill="#7D3840" />
<rect x="146" y="10" width="1" height="1" fill="#7D3840" />
<rect x="147" y="10" width="1" height="1" fill="#7D3840" />
<rect x="148" y="10" width="1" height="1" fill="#7D3840" />
<rect x="149" y="10" width="1" height="1" fill="#7D3840" />
<rect x="150" y="10" width="1" height="1" fill="#7D3840" />
<rect x="151" y="10" width="1" height="1" fill="#7D3840" />
<rect x="152" y="10" width="1" height="1" fill="#7D3840" />
<rect x="153" y="10" width="1" height="1" fill="#7D3840" />
<rect x="154" y="10" width="1" height="1" fill="#7D3840" />
<rect x="155" y="10" width="1" height="1" fill="#7D3840" />
<rect x="156" y="10" width="1" height="1" fill="#7D3840" />
<rect x="157" y="10" width="1" height="1" fill="#7D3840" />
<rect x="18" y="11" width="1" height="1" fill="#7D3840" />
<rect x="19" y="11" width="1" height="1" fill="#7D3840" />
<rect x="20" y="11" width="1" height="1" fill="#7D3840" />
<rect x="21" y="11" width="1" height="1" fill="#FFF9E4" />
<rect x="22" y="11" width="1" height="1" fill="#7D3840" />
<rect x="23" y="11" width="1" height="1" fill="#7D3840" />
<rect x="24" y="11" width="1" height="1" fill="#7D3840" />
<rect x="25" y="11" width="1" height="1" fill="#7D3840" />
<rect x="26" y="11" width="1" height="1" fill="#FFF9E4" />
<rect x="27" y="11" width="1" height="1" fill="#7D3840" />
<rect x="28" y="11" width="1" height="1" fill="#7D3840" />
<rect x="29" y="11" width="1" height="1" fill="#7D3840" />
<rect x="49" y="11" width="1" height="1" fill="#7D3840" />
<rect x="50" y="11" width="1" height="1" fill="#7D3840" />
<rect x="51" y="11" width="1" height="1" fill="#7D3840" />
<rect x="52" y="11" width="1" height="1" fill="#FFF9E4" />
<rect x="53" y="11" width="1" height="1" fill="#7D3840" />
<rect x="54" y="11" width="1" height="1" fill="#7D3840" />
<rect x="55" y="11" width="1" height="1" fill="#7D3840" />
<rect x="56" y="11" width="1" height="1" fill="#7D3840" />
<rect x="57" y="11" width="1" height="1" fill="#FFF9E4" />
<rect x="58" y="11" width="1" height="1" fill="#7D3840" />
<rect x="59" y="11" width="1" height="1" fill="#7D3840" />
<rect x="60" y="11" width="1" height="1" fill="#7D3840" />
<rect x="74" y="11" width="1" height="1" fill="#FFF9E4" />
<rect x="75" y="11" width="1" height="1" fill="#FFF9E4" />
<rect x="76" y="11" width="1" height="1" fill="#FFF9E4" />
<rect x="77" y="11" width="1" height="1" fill="#FFF9E4" />
<rect x="78" y="11" width="1" height="1" fill="#FFF9E4" />
<rect x="79" y="11" width="1" height="1" fill="#FFF9E4" />
<rect x="82" y="11" width="1" height="1" fill="#7D3840" />
<rect x="83" y="11" width="1" height="1" fill="#7D3840" />
<rect x="84" y="11" width="1" height="1" fill="#7D3840" />
<rect x="85" y="11" width="1" height="1" fill="#FFF9E4" />
<rect x="86" y="11" width="1" height="1" fill="#7D3840" />
<rect x="87" y="11" width="1" height="1" fill="#7D3840" />
<rect x="88" y="11" width="1" height="1" fill="#7D3840" />
<rect x="89" y="11" width="1" height="1" fill="#7D3840" />
<rect x="90" y="11" width="1" height="1" fill="#FFF9E4" />
<rect x="91" y="11" width="1" height="1" fill="#7D3840" />
<rect x="92" y="11" width="1" height="1" fill="#7D3840" />
<rect x="93" y="11" width="1" height="1" fill="#7D3840" />
<rect x="94" y="11" width="1" height="1" fill="#EEE9D5" />
<rect x="95" y="11" width="1" height="1" fill="#FFF9E4" />
<rect x="106" y="11" width="1" height="1" fill="#FFF9E4" />
<rect x="107" y="11" width="1" height="1" fill="#FFF9E4" />
<rect x="108" y="11" width="1" height="1" fill="#FFF9E4" />
<rect x="114" y="11" width="1" height="1" fill="#7D3840" />
<rect x="115" y="11" width="1" height="1" fill="#7D3840" />
<rect x="116" y="11" width="1" height="1" fill="#7D3840" />
<rect x="117" y="11" width="1" height="1" fill="#FFF9E4" />
<rect x="118" y="11" width="1" height="1" fill="#7D3840" />
<rect x="119" y="11" width="1" height="1" fill="#7D3840" />
<rect x="120" y="11" width="1" height="1" fill="#7D3840" />
<rect x="121" y="11" width="1" height="1" fill="#7D3840" />
<rect x="122" y="11" width="1" height="1" fill="#FFF9E4" />
<rect x="123" y="11" width="1" height="1" fill="#7D3840" />
<rect x="124" y="11" width="1" height="1" fill="#7D3840" />
<rect x="125" y="11" width="1" height="1" fill="#7D3840" />
<rect x="126" y="11" width="1" height="1" fill="#EEE9D5" />
<rect x="146" y="11" width="1" height="1" fill="#7D3840" />
<rect x="147" y="11" width="1" height="1" fill="#7D3840" />
<rect x="148" y="11" width="1" height="1" fill="#7D3840" />
<rect x="149" y="11" width="1" height="1" fill="#FFF9E4" />
<rect x="150" y="11" width="1" height="1" fill="#7D3840" />
<rect x="151" y="11" width="1" height="1" fill="#7D3840" />
<rect x="152" y="11" width="1" height="1" fill="#7D3840" />
<rect x="153" y="11" width="1" height="1" fill="#7D3840" />
<rect x="154" y="11" width="1" height="1" fill="#FFF9E4" />
<rect x="155" y="11" width="1" height="1" fill="#7D3840" />
<rect x="156" y="11" width="1" height="1" fill="#7D3840" />
<rect x="157" y="11" width="1" height="1" fill="#7D3840" />
<rect x="19" y="12" width="1" height="1" fill="#7D3840" />
<rect x="20" y="12" width="1" height="1" fill="#7D3840" />
<rect x="21" y="12" width="1" height="1" fill="#7D3840" />
<rect x="22" y="12" width="1" height="1" fill="#7D3840" />
<rect x="23" y="12" width="1" height="1" fill="#7D3840" />
<rect x="24" y="12" width="1" height="1" fill="#7D3840" />
<rect x="25" y="12" width="1" height="1" fill="#7D3840" />
<rect x="26" y="12" width="1" height="1" fill="#7D3840" />
<rect x="27" y="12" width="1" height="1" fill="#7D3840" />
<rect x="28" y="12" width="1" height="1" fill="#7D3840" />
<rect x="50" y="12" width="1" height="1" fill="#7D3840" />
<rect x="51" y="12" width="1" height="1" fill="#7D3840" />
<rect x="52" y="12" width="1" height="1" fill="#7D3840" />
<rect x="53" y="12" width="1" height="1" fill="#7D3840" />
<rect x="54" y="12" width="1" height="1" fill="#7D3840" />
<rect x="55" y="12" width="1" height="1" fill="#7D3840" />
<rect x="56" y="12" width="1" height="1" fill="#7D3840" />
<rect x="57" y="12" width="1" height="1" fill="#7D3840" />
<rect x="58" y="12" width="1" height="1" fill="#7D3840" />
<rect x="59" y="12" width="1" height="1" fill="#7D3840" />
<rect x="83" y="12" width="1" height="1" fill="#7D3840" />
<rect x="84" y="12" width="1" height="1" fill="#7D3840" />
<rect x="85" y="12" width="1" height="1" fill="#7D3840" />
<rect x="86" y="12" width="1" height="1" fill="#7D3840" />
<rect x="87" y="12" width="1" height="1" fill="#7D3840" />
<rect x="88" y="12" width="1" height="1" fill="#7D3840" />
<rect x="89" y="12" width="1" height="1" fill="#7D3840" />
<rect x="90" y="12" width="1" height="1" fill="#7D3840" />
<rect x="91" y="12" width="1" height="1" fill="#7D3840" />
<rect x="92" y="12" width="1" height="1" fill="#7D3840" />
<rect x="93" y="12" width="1" height="1" fill="#EEE9D5" />
<rect x="94" y="12" width="1" height="1" fill="#FFF9E4" />
<rect x="95" y="12" width="1" height="1" fill="#FFF9E4" />
<rect x="115" y="12" width="1" height="1" fill="#7D3840" />
<rect x="116" y="12" width="1" height="1" fill="#7D3840" />
<rect x="117" y="12" width="1" height="1" fill="#7D3840" />
<rect x="118" y="12" width="1" height="1" fill="#7D3840" />
<rect x="119" y="12" width="1" height="1" fill="#7D3840" />
<rect x="120" y="12" width="1" height="1" fill="#7D3840" />
<rect x="121" y="12" width="1" height="1" fill="#7D3840" />
<rect x="122" y="12" width="1" height="1" fill="#7D3840" />
<rect x="123" y="12" width="1" height="1" fill="#7D3840" />
<rect x="124" y="12" width="1" height="1" fill="#7D3840" />
<rect x="125" y="12" width="1" height="1" fill="#EEE9D5" />
<rect x="126" y="12" width="1" height="1" fill="#FFF9E4" />
<rect x="147" y="12" width="1" height="1" fill="#7D3840" />
<rect x="148" y="12" width="1" height="1" fill="#7D3840" />
<rect x="149" y="12" width="1" height="1" fill="#7D3840" />
<rect x="150" y="12" width="1" height="1" fill="#7D3840" />
<rect x="151" y="12" width="1" height="1" fill="#7D3840" />
<rect x="152" y="12" width="1" height="1" fill="#7D3840" />
<rect x="153" y="12" width="1" height="1" fill="#7D3840" />
<rect x="154" y="12" width="1" height="1" fill="#7D3840" />
<rect x="155" y="12" width="1" height="1" fill="#7D3840" />
<rect x="156" y="12" width="1" height="1" fill="#7D3840" />
<rect x="20" y="13" width="1" height="1" fill="#7D3840" />
<rect x="21" y="13" width="1" height="1" fill="#7D3840" />
<rect x="22" y="13" width="1" height="1" fill="#7D3840" />
<rect x="23" y="13" width="1" height="1" fill="#7D3840" />
<rect x="24" y="13" width="1" height="1" fill="#7D3840" />
<rect x="25" y="13" width="1" height="1" fill="#7D3840" />
<rect x="26" y="13" width="1" height="1" fill="#7D3840" />
<rect x="27" y="13" width="1" height="1" fill="#7D3840" />
<rect x="51" y="13" width="1" height="1" fill="#7D3840" />
<rect x="52" y="13" width="1" height="1" fill="#7D3840" />
<rect x="53" y="13" width="1" height="1" fill="#7D3840" />
<rect x="54" y="13" width="1" height="1" fill="#7D3840" />
<rect x="55" y="13" width="1" height="1" fill="#7D3840" />
<rect x="56" y="13" width="1" height="1" fill="#7D3840" />
<rect x="57" y="13" width="1" height="1" fill="#7D3840" />
<rect x="58" y="13" width="1" height="1" fill="#7D3840" />
<rect x="76" y="13" width="1" height="1" fill="#FFF9E4" />
<rect x="77" y="13" width="1" height="1" fill="#FFF9E4" />
<rect x="78" y="13" width="1" height="1" fill="#FFF9E4" />
<rect x="79" y="13" width="1" height="1" fill="#FFF9E4" />
<rect x="80" y="13" width="1" height="1" fill="#FFF9E4" />
<rect x="84" y="13" width="1" height="1" fill="#7D3840" />
<rect x="85" y="13" width="1" height="1" fill="#7D3840" />
<rect x="86" y="13" width="1" height="1" fill="#7D3840" />
<rect x="87" y="13" width="1" height="1" fill="#7D3840" />
<rect x="88" y="13" width="1" height="1" fill="#7D3840" />
<rect x="89" y="13" width="1" height="1" fill="#7D3840" />
<rect x="90" y="13" width="1" height="1" fill="#7D3840" />
<rect x="91" y="13" width="1" height="1" fill="#7D3840" />
<rect x="108" y="13" width="1" height="1" fill="#FFF9E4" />
<rect x="116" y="13" width="1" height="1" fill="#7D3840" />
<rect x="117" y="13" width="1" height="1" fill="#7D3840" />
<rect x="118" y="13" width="1" height="1" fill="#7D3840" />
<rect x="119" y="13" width="1" height="1" fill="#7D3840" />
<rect x="120" y="13" width="1" height="1" fill="#7D3840" />
<rect x="121" y="13" width="1" height="1" fill="#7D3840" />
<rect x="122" y="13" width="1" height="1" fill="#7D3840" />
<rect x="123" y="13" width="1" height="1" fill="#7D3840" />
<rect x="148" y="13" width="1" height="1" fill="#7D3840" />
<rect x="149" y="13" width="1" height="1" fill="#7D3840" />
<rect x="150" y="13" width="1" height="1" fill="#7D3840" />
<rect x="151" y="13" width="1" height="1" fill="#7D3840" />
<rect x="152" y="13" width="1" height="1" fill="#7D3840" />
<rect x="153" y="13" width="1" height="1" fill="#7D3840" />
<rect x="154" y="13" width="1" height="1" fill="#7D3840" />
<rect x="155" y="13" width="1" height="1" fill="#7D3840" />
<rect x="83" y="15" width="1" height="1" fill="#FFF9E4" />
<rect x="84" y="15" width="1" height="1" fill="#FFF9E4" />
<rect x="85" y="15" width="1" height="1" fill="#FFF9E4" />
<rect x="86" y="15" width="1" height="1" fill="#FFF9E4" />
<rect x="87" y="15" width="1" height="1" fill="#FFF9E4" />
<rect x="88" y="15" width="1" height="1" fill="#FFF9E4" />
<rect x="115" y="15" width="1" height="1" fill="#FFF9E4" />
<rect x="116" y="15" width="1" height="1" fill="#FFF9E4" />
<rect x="117" y="15" width="1" height="1" fill="#FFF9E4" />
</svg>